<svg id="svg" version="1.1" xmlns="http://www.w3.org/2000/svg" xmlns:xlink="http://www.w3.org/1999/xlink" width="400" height="381.4946619217082" viewBox="0, 0, 400,381.4946619217082"><g id="svgg"><path id="path0" d="M335.978 11.314 C 324.964 16.743,324.003 44.556,334.306 59.705 C 339.708 67.648,351.972 76.316,360.305 78.082 C 361.670 78.371,364.075 78.888,365.649 79.230 C 367.737 79.684,369.856 79.814,373.474 79.709 L 378.435 79.566 381.630 77.885 C 386.176 75.492,386.622 74.775,388.711 66.513 C 389.154 64.763,389.313 62.227,389.313 56.926 L 389.313 49.718 387.631 44.555 C 380.883 23.836,363.371 10.662,342.622 10.696 C 338.453 10.702,336.930 10.844,335.978 11.314 M184.924 13.195 C 183.874 13.487,181.555 13.730,179.771 13.735 C 174.921 13.749,173.932 14.138,171.973 16.799 C 170.210 19.194,164.217 30.716,163.240 33.588 C 162.919 34.532,162.143 36.508,161.515 37.977 C 160.270 40.889,155.725 54.611,155.725 55.456 C 155.725 55.743,155.403 57.081,155.010 58.428 C 153.275 64.371,152.063 71.594,152.676 72.333 C 153.425 73.236,155.910 73.002,160.878 71.561 C 163.397 70.831,165.973 70.228,166.603 70.221 C 167.233 70.215,169.208 69.875,170.992 69.466 C 172.777 69.057,175.463 68.717,176.962 68.712 C 178.460 68.707,181.123 68.417,182.878 68.068 C 186.974 67.253,194.787 67.259,199.618 68.082 C 201.613 68.421,204.532 68.701,206.107 68.703 C 207.681 68.706,210.397 69.050,212.142 69.468 C 213.888 69.887,215.788 70.229,216.364 70.229 C 223.424 70.229,247.352 80.151,258.926 87.878 C 287.902 107.222,310.021 141.400,312.963 171.374 C 313.159 173.368,313.500 175.600,313.721 176.333 C 314.246 178.078,314.263 203.523,313.740 205.346 C 313.529 206.079,313.184 208.139,312.973 209.924 C 311.168 225.195,303.258 245.450,293.443 259.941 C 288.582 267.116,289.334 268.218,299.427 268.711 C 302.485 268.861,305.343 269.201,306.107 269.505 C 308.020 270.268,332.388 270.281,334.351 269.520 C 335.086 269.236,337.834 268.862,340.458 268.691 C 348.442 268.168,352.012 266.551,353.738 262.675 C 356.086 257.399,357.818 252.766,360.403 244.847 C 363.383 235.714,363.669 234.578,366.776 219.466 C 367.013 218.311,367.379 215.048,367.589 212.214 C 367.799 209.380,368.221 206.092,368.527 204.907 C 369.329 201.804,369.321 180.124,368.517 177.102 C 368.210 175.948,367.858 173.028,367.735 170.613 C 367.612 168.198,367.281 165.105,367.000 163.740 C 366.718 162.376,366.121 159.370,365.672 157.061 C 363.661 146.713,359.542 132.953,355.561 123.282 C 352.568 116.010,353.963 116.657,340.667 116.382 L 329.962 116.161 325.000 114.433 C 317.974 111.986,309.817 107.812,306.801 105.121 C 305.475 103.937,303.491 102.372,302.393 101.643 C 301.199 100.850,299.623 99.254,298.474 97.674 C 297.416 96.221,295.738 94.131,294.744 93.031 C 291.256 89.171,286.928 79.630,284.661 70.802 C 283.447 66.077,283.331 48.965,284.487 45.292 C 285.655 41.580,284.596 39.424,280.629 37.438 C 279.737 36.991,277.848 35.878,276.431 34.964 C 273.094 32.812,268.971 30.751,265.530 29.516 C 264.021 28.974,261.756 28.008,260.496 27.369 C 258.491 26.353,253.847 24.573,245.992 21.809 C 242.459 20.566,234.916 18.430,231.107 17.593 C 229.218 17.178,226.384 16.549,224.809 16.195 C 223.235 15.841,220.401 15.420,218.511 15.258 C 216.622 15.097,213.874 14.692,212.405 14.359 C 210.758 13.986,207.901 13.749,204.962 13.743 C 201.992 13.736,199.398 13.519,198.092 13.168 C 195.405 12.447,187.554 12.463,184.924 13.195 " stroke="none" fill="#7473b6" fill-rule="evenodd"></path><path id="path1" d="M144.940 0.451 C 144.362 0.658,143.966 0.955,144.061 1.109 C 144.157 1.263,143.704 1.311,143.055 1.216 C 142.335 1.110,141.967 1.190,142.110 1.420 C 142.249 1.645,141.973 1.727,141.429 1.623 C 140.343 1.416,137.695 2.215,137.974 2.667 C 138.081 2.840,137.798 2.885,137.345 2.767 C 136.732 2.606,136.601 2.679,136.831 3.052 C 137.042 3.392,136.993 3.461,136.679 3.267 C 136.006 2.852,134.264 3.367,134.585 3.887 C 134.748 4.151,134.679 4.210,134.405 4.041 C 133.741 3.630,129.687 4.899,130.007 5.417 C 130.168 5.678,130.097 5.736,129.825 5.568 C 129.253 5.214,125.097 6.409,125.369 6.849 C 125.481 7.032,125.203 7.084,124.750 6.965 C 124.136 6.805,124.005 6.878,124.236 7.251 C 124.446 7.591,124.397 7.660,124.083 7.466 C 123.410 7.050,121.669 7.566,121.990 8.085 C 122.148 8.341,122.084 8.409,121.832 8.253 C 121.267 7.904,119.415 8.387,119.679 8.815 C 119.793 9.000,119.605 9.043,119.261 8.911 C 118.565 8.644,114.051 10.644,114.330 11.096 C 114.426 11.252,114.134 11.282,113.681 11.164 C 113.177 11.032,112.950 11.098,113.097 11.335 C 113.240 11.566,112.995 11.659,112.488 11.566 C 111.542 11.392,96.253 18.818,94.656 20.227 C 94.132 20.691,92.500 21.676,91.031 22.416 C 88.217 23.834,85.763 25.712,86.180 26.129 C 86.316 26.265,86.162 26.275,85.839 26.151 C 85.195 25.903,81.241 28.608,81.540 29.091 C 81.639 29.250,81.424 29.267,81.064 29.129 C 80.652 28.971,80.502 29.027,80.658 29.281 C 80.800 29.511,80.621 29.662,80.244 29.632 C 79.879 29.604,79.623 29.795,79.676 30.057 C 79.728 30.320,79.642 30.499,79.485 30.456 C 78.935 30.305,76.695 31.715,76.916 32.073 C 77.043 32.279,76.857 32.326,76.484 32.183 C 76.004 31.999,75.913 32.067,76.141 32.437 C 76.354 32.781,76.307 32.852,75.994 32.658 C 75.470 32.334,71.690 35.667,72.083 36.107 C 72.218 36.258,72.117 36.261,71.859 36.112 C 70.929 35.578,63.433 41.943,63.970 42.811 C 64.076 42.982,63.867 43.008,63.507 42.870 C 63.027 42.686,62.936 42.754,63.164 43.124 C 63.369 43.456,63.329 43.538,63.047 43.364 C 61.982 42.706,46.042 57.944,43.285 62.256 C 42.696 63.178,40.855 65.347,39.194 67.077 C 37.162 69.194,36.250 70.417,36.404 70.818 C 36.554 71.208,36.480 71.319,36.190 71.140 C 35.885 70.952,35.833 71.089,36.024 71.586 C 36.176 71.981,36.190 72.196,36.057 72.062 C 35.372 71.378,30.883 77.590,31.224 78.750 C 31.275 78.923,31.152 78.963,30.950 78.838 C 30.570 78.603,29.161 80.338,28.256 82.156 C 27.969 82.734,27.591 83.206,27.416 83.206 C 27.242 83.206,27.099 83.388,27.099 83.610 C 27.099 83.833,27.298 83.892,27.540 83.742 C 27.815 83.572,27.877 83.638,27.704 83.917 C 27.552 84.163,27.277 84.270,27.092 84.156 C 26.632 83.871,25.854 85.407,26.186 85.945 C 26.363 86.230,26.281 86.271,25.948 86.065 C 25.578 85.836,25.510 85.928,25.694 86.408 C 25.834 86.771,25.789 86.966,25.593 86.845 C 25.041 86.504,23.562 88.744,21.230 93.456 C 18.918 98.124,18.860 98.275,19.525 97.864 C 19.800 97.694,19.862 97.760,19.689 98.039 C 19.537 98.285,19.283 98.406,19.125 98.307 C 18.708 98.050,17.112 101.497,17.418 101.992 C 17.563 102.226,17.500 102.300,17.275 102.161 C 16.787 101.859,15.527 104.837,15.892 105.428 C 16.042 105.671,15.972 105.734,15.723 105.580 C 15.214 105.266,11.723 112.110,12.090 112.703 C 12.240 112.946,12.140 112.977,11.826 112.783 C 11.456 112.554,11.388 112.646,11.572 113.125 C 11.710 113.485,11.672 113.686,11.486 113.572 C 11.113 113.341,10.751 114.062,10.305 115.918 C 10.120 116.689,10.160 117.191,10.413 117.275 C 10.634 117.349,10.424 117.773,9.947 118.217 C 9.428 118.701,9.196 119.214,9.370 119.495 C 9.569 119.818,9.502 119.868,9.154 119.653 C 8.784 119.424,8.716 119.516,8.900 119.995 C 9.038 120.356,8.996 120.554,8.807 120.437 C 8.335 120.146,7.099 123.489,7.461 124.075 C 7.648 124.377,7.594 124.448,7.311 124.273 C 6.906 124.023,6.713 124.723,6.767 126.236 C 6.776 126.496,6.640 126.620,6.464 126.512 C 6.288 126.403,5.945 127.049,5.702 127.947 C 5.459 128.845,5.109 129.924,4.925 130.344 C 4.741 130.763,4.429 132.052,4.232 133.206 C 3.858 135.389,3.003 138.229,2.075 140.368 C 1.777 141.053,1.430 142.341,1.303 143.230 C 1.177 144.120,0.796 145.608,0.458 146.539 C -0.003 147.808,-0.042 148.269,0.303 148.384 C 0.556 148.468,0.763 148.876,0.763 149.291 C 0.763 149.706,0.592 149.939,0.382 149.809 C 0.128 149.652,0.000 163.426,0.000 190.840 C 0.000 218.253,0.128 232.027,0.382 231.870 C 0.592 231.740,0.763 231.974,0.763 232.388 C 0.763 232.803,0.549 233.216,0.286 233.305 C -0.090 233.434,-0.079 233.744,0.338 234.769 C 0.628 235.484,0.949 236.733,1.050 237.546 C 1.179 238.582,1.335 238.867,1.571 238.500 C 1.779 238.177,1.812 238.474,1.657 239.277 C 1.479 240.206,1.532 240.500,1.844 240.307 C 2.128 240.131,2.201 240.246,2.052 240.634 C 1.926 240.962,1.990 241.444,2.195 241.703 C 2.399 241.963,2.671 243.099,2.798 244.228 C 2.925 245.356,3.292 246.681,3.614 247.172 C 3.935 247.663,4.198 248.301,4.198 248.589 C 4.198 249.385,6.145 255.483,6.532 255.897 C 6.718 256.096,6.870 256.580,6.870 256.971 C 6.870 258.041,8.438 261.470,8.819 261.235 C 9.002 261.122,9.038 261.324,8.900 261.684 C 8.731 262.125,8.793 262.250,9.091 262.066 C 9.373 261.891,9.456 261.993,9.321 262.346 C 9.204 262.650,9.496 263.260,9.970 263.701 C 10.443 264.143,10.615 264.504,10.352 264.504 C 10.037 264.504,9.956 264.799,10.114 265.363 C 10.646 267.249,11.174 268.301,11.490 268.105 C 11.673 267.992,11.710 268.194,11.572 268.554 C 11.388 269.034,11.456 269.126,11.826 268.897 C 12.150 268.697,12.240 268.732,12.077 268.996 C 11.756 269.517,12.596 271.419,13.029 271.151 C 13.205 271.042,13.237 271.247,13.099 271.608 C 12.915 272.087,12.983 272.179,13.353 271.950 C 13.671 271.753,13.767 271.786,13.611 272.039 C 13.303 272.536,14.287 274.517,14.657 274.147 C 14.805 273.999,14.820 274.153,14.691 274.489 C 14.548 274.863,14.848 275.523,15.463 276.186 C 16.016 276.783,16.314 277.323,16.126 277.385 C 15.938 277.448,15.855 277.981,15.941 278.570 C 16.117 279.771,18.454 282.946,18.861 282.538 C 19.006 282.393,19.000 282.599,18.848 282.994 C 18.642 283.533,18.699 283.635,19.078 283.401 C 19.402 283.200,19.492 283.236,19.329 283.500 C 18.980 284.065,19.866 285.911,20.344 285.616 C 20.555 285.485,20.614 285.564,20.474 285.790 C 20.048 286.479,21.010 288.132,21.708 287.911 C 22.175 287.763,22.205 287.803,21.829 288.073 C 21.260 288.481,22.373 291.357,22.959 290.994 C 23.132 290.887,23.161 291.095,23.022 291.455 C 22.853 291.896,22.915 292.021,23.213 291.837 C 23.492 291.665,23.580 291.761,23.450 292.098 C 23.218 292.702,25.724 295.904,26.120 295.509 C 26.261 295.368,26.252 295.576,26.100 295.971 C 25.910 296.468,25.961 296.606,26.267 296.417 C 26.546 296.244,26.633 296.342,26.502 296.682 C 26.388 296.979,26.701 297.718,27.198 298.324 C 27.694 298.931,28.575 300.254,29.156 301.264 C 29.737 302.274,30.585 303.238,31.041 303.407 C 31.497 303.575,31.827 303.823,31.775 303.956 C 31.373 304.977,33.626 308.273,34.399 307.795 C 34.593 307.675,34.705 307.804,34.647 308.082 C 34.589 308.360,34.757 308.545,35.019 308.492 C 35.281 308.440,35.459 308.526,35.413 308.683 C 35.142 309.616,36.626 311.924,39.242 314.640 C 40.889 316.350,42.682 318.521,43.228 319.466 C 44.783 322.161,62.757 339.861,63.607 339.535 C 63.982 339.391,64.167 339.395,64.018 339.545 C 63.620 339.942,65.189 340.933,65.708 340.612 C 65.954 340.460,66.046 340.506,65.916 340.716 C 65.564 341.285,69.675 345.190,70.251 344.834 C 70.554 344.646,70.633 344.694,70.465 344.965 C 70.307 345.220,70.819 345.705,71.742 346.176 C 72.589 346.608,73.282 346.843,73.282 346.697 C 73.282 346.551,73.707 346.830,74.225 347.317 C 74.743 347.804,75.078 348.347,74.969 348.523 C 74.705 348.951,77.162 350.431,77.763 350.205 C 78.022 350.108,78.194 350.225,78.144 350.467 C 78.094 350.709,78.912 351.469,79.962 352.154 C 81.011 352.840,82.341 353.764,82.915 354.207 C 83.490 354.650,84.161 354.889,84.406 354.737 C 84.677 354.570,84.748 354.628,84.588 354.887 C 84.264 355.411,86.490 356.627,87.093 356.254 C 87.344 356.099,87.417 356.160,87.269 356.399 C 86.939 356.934,88.914 358.485,89.593 358.225 C 89.920 358.099,90.013 358.190,89.843 358.466 C 89.661 358.761,89.780 358.828,90.200 358.666 C 90.589 358.517,90.796 358.602,90.740 358.888 C 90.689 359.144,91.023 359.339,91.489 359.323 C 91.953 359.307,92.224 359.464,92.094 359.674 C 91.954 359.900,92.123 359.952,92.514 359.802 C 92.956 359.633,93.080 359.695,92.896 359.993 C 92.714 360.288,92.833 360.354,93.253 360.193 C 93.631 360.048,93.847 360.128,93.793 360.391 C 93.669 360.994,97.334 363.438,97.987 363.188 C 98.276 363.077,98.424 363.131,98.314 363.307 C 98.047 363.740,99.949 364.580,100.469 364.259 C 100.696 364.119,100.776 364.174,100.648 364.382 C 100.354 364.858,102.960 366.133,103.520 365.787 C 103.748 365.646,103.830 365.700,103.703 365.906 C 103.381 366.427,108.547 368.873,109.333 368.571 C 109.680 368.438,109.878 368.468,109.773 368.637 C 109.507 369.067,112.110 369.957,112.652 369.621 C 112.948 369.439,112.991 369.516,112.783 369.853 C 112.554 370.223,112.646 370.291,113.125 370.107 C 113.495 369.965,113.684 370.012,113.559 370.214 C 113.261 370.696,114.801 371.488,115.508 371.217 C 115.817 371.098,115.980 371.147,115.870 371.325 C 115.448 372.007,125.168 375.486,126.022 374.958 C 126.276 374.801,126.349 374.861,126.199 375.103 C 125.892 375.600,129.970 376.876,130.606 376.482 C 130.885 376.310,130.926 376.392,130.724 376.719 C 130.492 377.095,130.629 377.163,131.276 376.994 C 131.749 376.871,132.032 376.874,131.905 377.001 C 131.583 377.323,134.427 378.278,135.039 378.054 C 135.339 377.944,135.429 378.045,135.265 378.309 C 135.082 378.606,135.259 378.677,135.819 378.531 C 136.272 378.412,136.562 378.446,136.463 378.605 C 136.213 379.010,139.233 379.865,139.761 379.539 C 140.044 379.364,140.088 379.444,139.888 379.767 C 139.657 380.141,139.829 380.216,140.581 380.072 C 141.180 379.958,141.487 380.031,141.349 380.256 C 141.208 380.484,141.649 380.568,142.478 380.471 C 143.278 380.378,143.747 380.462,143.616 380.674 C 143.488 380.882,143.743 380.944,144.216 380.821 C 144.669 380.702,144.954 380.743,144.850 380.912 C 144.415 381.616,147.840 381.673,190.840 381.673 C 233.406 381.673,237.262 381.612,236.849 380.943 C 236.756 380.792,236.971 380.669,237.328 380.670 C 239.341 380.672,240.479 380.496,240.301 380.208 C 240.190 380.028,240.549 379.967,241.099 380.072 C 241.851 380.216,242.022 380.141,241.792 379.767 C 241.594 379.448,241.635 379.364,241.908 379.533 C 242.423 379.851,244.337 379.417,244.101 379.036 C 244.009 378.886,244.427 378.836,245.030 378.925 C 246.293 379.110,248.957 378.336,248.667 377.867 C 248.560 377.694,248.843 377.649,249.296 377.767 C 249.856 377.914,250.033 377.843,249.849 377.545 C 249.675 377.264,249.785 377.187,250.155 377.329 C 250.880 377.607,253.510 376.766,253.247 376.341 C 253.140 376.167,253.423 376.122,253.876 376.241 C 254.436 376.387,254.613 376.316,254.429 376.019 C 254.255 375.738,254.365 375.660,254.735 375.803 C 255.559 376.119,258.078 375.219,257.769 374.719 C 257.621 374.479,257.695 374.420,257.947 374.576 C 258.535 374.940,261.529 374.101,261.251 373.651 C 261.125 373.447,261.313 373.400,261.684 373.543 C 262.125 373.712,262.250 373.650,262.066 373.352 C 261.882 373.054,262.006 372.991,262.447 373.161 C 262.927 373.345,263.019 373.277,262.790 372.907 C 262.594 372.590,262.626 372.493,262.874 372.646 C 263.372 372.954,265.712 372.167,265.469 371.774 C 265.371 371.615,265.740 371.570,266.290 371.675 C 266.973 371.806,267.204 371.730,267.022 371.434 C 266.854 371.163,266.959 371.080,267.302 371.211 C 267.938 371.455,291.950 359.549,292.740 358.598 C 293.031 358.247,293.931 357.622,294.740 357.209 C 295.618 356.761,296.104 356.288,295.947 356.033 C 295.785 355.772,295.857 355.714,296.132 355.884 C 296.638 356.197,298.955 354.426,298.559 354.030 C 298.420 353.891,298.629 353.901,299.025 354.052 C 299.489 354.231,299.655 354.186,299.494 353.925 C 299.352 353.695,299.531 353.544,299.909 353.574 C 300.274 353.602,300.530 353.411,300.477 353.149 C 300.425 352.886,300.510 352.707,300.668 352.750 C 301.218 352.901,303.458 351.491,303.237 351.133 C 303.110 350.928,303.296 350.880,303.669 351.023 C 304.148 351.207,304.240 351.139,304.011 350.769 C 303.798 350.424,303.846 350.355,304.164 350.551 C 304.732 350.902,306.186 349.673,305.848 349.127 C 305.712 348.907,305.795 348.853,306.037 349.002 C 306.932 349.556,313.358 344.783,312.659 344.084 C 312.532 343.957,312.751 343.977,313.147 344.129 C 313.686 344.335,313.787 344.278,313.553 343.899 C 313.341 343.556,313.388 343.484,313.698 343.676 C 314.218 343.997,315.360 343.208,315.066 342.731 C 314.960 342.560,315.074 342.295,315.320 342.143 C 315.599 341.970,315.665 342.032,315.494 342.307 C 314.787 343.452,316.007 342.430,319.580 338.883 C 321.721 336.757,323.426 334.855,323.368 334.656 C 323.311 334.457,323.434 334.400,323.643 334.529 C 324.346 334.964,327.362 332.935,327.454 331.966 C 327.469 331.808,327.549 331.722,327.632 331.775 C 327.975 331.992,329.352 330.401,329.131 330.043 C 328.998 329.828,329.060 329.758,329.268 329.887 C 329.764 330.193,332.548 327.340,332.164 326.919 C 332.003 326.741,332.066 326.707,332.306 326.844 C 332.903 327.185,335.610 324.130,335.338 323.421 C 335.200 323.062,335.282 322.959,335.565 323.134 C 335.860 323.316,335.927 323.197,335.766 322.777 C 335.633 322.430,335.650 322.187,335.804 322.237 C 336.308 322.400,342.385 316.247,342.199 315.763 C 342.099 315.504,342.209 315.174,342.442 315.030 C 342.699 314.871,342.759 314.941,342.594 315.208 C 342.444 315.451,342.476 315.649,342.665 315.649 C 342.854 315.649,343.453 314.833,343.996 313.836 C 344.540 312.839,345.527 311.508,346.190 310.878 C 347.662 309.481,348.598 307.774,348.237 307.145 C 348.090 306.889,348.096 306.793,348.250 306.931 C 348.702 307.336,352.761 302.691,352.515 302.050 C 352.376 301.689,352.457 301.585,352.741 301.760 C 353.047 301.949,353.098 301.812,352.907 301.315 C 352.756 300.919,352.745 300.710,352.885 300.849 C 353.255 301.220,355.061 298.943,354.770 298.472 C 354.634 298.252,354.691 298.120,354.896 298.178 C 355.101 298.235,355.715 297.631,356.261 296.834 C 357.363 295.224,357.482 294.861,356.775 295.268 C 356.498 295.427,356.431 295.397,356.616 295.195 C 356.791 295.004,357.134 294.843,357.379 294.838 C 357.624 294.833,357.801 294.534,357.772 294.174 C 357.743 293.814,357.876 293.616,358.066 293.734 C 358.520 294.014,359.645 291.315,359.304 290.764 C 359.134 290.488,359.219 290.449,359.548 290.652 C 359.927 290.887,359.984 290.785,359.778 290.246 C 359.626 289.851,359.617 289.642,359.758 289.783 C 360.154 290.179,362.659 286.977,362.427 286.372 C 362.298 286.036,362.386 285.939,362.665 286.111 C 362.963 286.296,363.025 286.171,362.855 285.730 C 362.717 285.370,362.746 285.162,362.919 285.269 C 363.505 285.632,364.617 282.756,364.049 282.347 C 363.673 282.077,363.703 282.038,364.170 282.186 C 364.878 282.410,365.820 280.760,365.402 280.029 C 365.260 279.782,365.284 279.706,365.455 279.861 C 365.859 280.227,366.865 278.287,366.542 277.764 C 366.386 277.511,366.481 277.479,366.800 277.675 C 367.170 277.904,367.238 277.812,367.054 277.333 C 366.916 276.973,366.947 276.767,367.124 276.877 C 367.557 277.144,368.397 275.242,368.076 274.722 C 367.913 274.458,368.003 274.422,368.327 274.622 C 368.697 274.851,368.765 274.759,368.581 274.279 C 368.442 273.919,368.479 273.717,368.662 273.830 C 368.979 274.026,369.507 272.974,370.038 271.088 C 370.197 270.525,370.115 270.229,369.801 270.229 C 369.537 270.229,369.709 269.868,370.183 269.427 C 370.657 268.985,370.949 268.375,370.832 268.071 C 370.696 267.718,370.779 267.616,371.062 267.791 C 371.360 267.975,371.422 267.851,371.252 267.409 C 371.114 267.049,371.151 266.847,371.334 266.960 C 371.688 267.179,373.282 263.801,373.282 262.833 C 373.282 262.516,373.613 261.689,374.016 260.995 C 374.419 260.301,375.037 258.788,375.388 257.634 C 375.740 256.479,376.257 255.019,376.539 254.389 C 377.460 252.329,378.276 249.214,378.007 248.780 C 377.858 248.539,377.916 248.462,378.142 248.601 C 378.579 248.871,378.994 247.688,379.002 246.146 C 379.005 245.601,379.281 244.607,379.615 243.937 C 379.950 243.267,380.123 242.459,380.001 242.141 C 379.880 241.823,379.915 241.647,380.080 241.749 C 380.573 242.054,381.636 237.783,381.747 235.049 C 381.804 233.649,381.971 232.578,382.119 232.669 C 382.544 232.932,382.901 231.386,382.634 230.439 C 382.460 229.818,382.495 229.728,382.763 230.116 C 383.026 230.497,383.182 230.002,383.306 228.398 C 383.401 227.159,383.754 225.458,384.089 224.618 C 384.470 223.666,384.706 221.898,384.716 219.918 C 384.725 218.172,384.880 216.454,385.061 216.101 C 385.521 215.198,385.925 212.903,385.586 213.113 C 385.432 213.208,385.305 203.255,385.305 190.994 C 385.305 178.734,385.430 168.702,385.582 168.702 C 385.935 168.702,385.504 166.341,385.064 165.859 C 384.882 165.659,384.725 163.942,384.716 162.042 C 384.705 159.804,384.485 158.050,384.089 157.061 C 383.754 156.221,383.396 154.504,383.295 153.244 C 383.155 151.491,383.032 151.133,382.771 151.718 C 382.505 152.315,382.477 152.245,382.643 151.399 C 382.906 150.057,382.528 148.757,381.975 149.099 C 381.747 149.240,381.649 149.199,381.756 149.009 C 382.526 147.646,380.808 140.023,379.803 140.340 C 379.281 140.504,379.276 140.476,379.766 140.130 C 380.252 139.786,380.260 139.550,379.822 138.471 C 379.308 137.204,379.228 136.869,378.815 134.245 C 378.690 133.452,378.426 132.903,378.229 133.024 C 378.032 133.146,377.970 132.987,378.092 132.672 C 378.213 132.356,378.168 131.875,377.992 131.602 C 377.816 131.330,377.491 130.334,377.270 129.389 C 377.026 128.348,376.677 127.713,376.382 127.777 C 376.116 127.834,375.988 127.735,376.099 127.555 C 376.414 127.045,375.322 123.326,374.251 121.262 C 373.718 120.235,373.282 119.143,373.282 118.835 C 373.282 118.527,373.113 118.380,372.905 118.509 C 372.691 118.641,372.624 118.492,372.750 118.164 C 372.871 117.846,372.698 117.038,372.363 116.368 C 371.510 114.658,371.582 113.493,372.557 113.238 C 372.998 113.123,373.247 112.847,373.110 112.625 C 372.954 112.372,373.104 112.316,373.516 112.474 C 373.957 112.643,374.082 112.581,373.898 112.283 C 373.714 111.985,373.838 111.923,374.279 112.092 C 374.721 112.262,374.845 112.199,374.661 111.901 C 374.490 111.625,374.584 111.534,374.910 111.660 C 375.197 111.770,376.049 111.381,376.802 110.796 C 377.555 110.211,378.714 109.434,379.378 109.068 C 380.041 108.703,380.484 108.243,380.362 108.045 C 380.240 107.848,380.341 107.562,380.587 107.410 C 380.866 107.238,380.932 107.299,380.762 107.575 C 380.612 107.817,380.665 108.015,380.880 108.015 C 381.254 108.015,382.294 106.435,382.094 106.170 C 382.041 106.101,382.125 105.929,382.281 105.789 C 382.437 105.649,382.428 105.771,382.260 106.061 C 382.051 106.422,382.121 106.529,382.485 106.402 C 382.777 106.299,382.994 105.949,382.968 105.623 C 382.942 105.298,383.887 104.114,385.067 102.993 L 387.213 100.954 385.320 102.958 C 384.278 104.060,383.551 104.962,383.704 104.962 C 384.106 104.962,387.610 101.116,387.518 100.776 C 387.475 100.619,387.991 99.993,388.663 99.386 L 389.885 98.282 388.764 99.523 C 387.481 100.943,387.686 101.225,389.009 99.859 C 391.290 97.505,392.508 96.097,392.021 96.376 C 391.659 96.583,391.575 96.538,391.761 96.236 C 391.913 95.990,392.187 95.881,392.369 95.994 C 392.551 96.107,392.973 95.809,393.306 95.332 C 395.651 91.976,396.559 90.376,396.330 90.005 C 396.157 89.724,396.240 89.684,396.571 89.889 C 396.941 90.118,397.009 90.026,396.825 89.547 C 396.687 89.186,396.718 88.981,396.895 89.090 C 397.328 89.358,398.168 87.456,397.847 86.935 C 397.684 86.671,397.774 86.636,398.097 86.836 C 398.468 87.064,398.536 86.973,398.352 86.493 C 398.213 86.133,398.245 85.928,398.422 86.037 C 398.855 86.305,399.695 84.402,399.373 83.882 C 399.224 83.640,399.297 83.580,399.549 83.736 C 399.867 83.932,399.984 77.171,399.995 57.882 L 400.010 31.761 399.027 29.804 C 398.441 28.639,397.875 27.951,397.627 28.105 C 397.392 28.250,397.318 28.187,397.458 27.962 C 398.018 27.056,394.791 21.749,394.100 22.440 C 393.964 22.576,393.977 22.363,394.129 21.968 C 394.319 21.471,394.268 21.333,393.962 21.522 C 393.672 21.701,393.599 21.589,393.750 21.195 C 394.045 20.427,380.622 6.755,379.860 7.047 C 379.579 7.155,379.451 7.080,379.574 6.880 C 379.794 6.525,376.802 4.733,376.240 4.885 C 376.083 4.927,375.997 4.747,376.050 4.485 C 376.102 4.222,375.846 4.031,375.481 4.060 C 375.116 4.089,374.907 3.968,375.016 3.791 C 375.281 3.363,371.114 1.407,370.606 1.720 C 370.388 1.855,370.257 1.738,370.315 1.460 C 370.378 1.156,370.085 0.965,369.580 0.982 C 369.118 0.998,368.817 0.887,368.910 0.736 C 369.003 0.585,368.821 0.362,368.505 0.241 C 367.295 -0.223,316.729 -0.032,317.018 0.436 C 317.191 0.715,317.128 0.779,316.849 0.607 C 316.270 0.249,314.810 0.714,315.091 1.168 C 315.210 1.361,315.013 1.405,314.652 1.267 C 314.172 1.083,314.081 1.151,314.309 1.521 C 314.514 1.852,314.474 1.935,314.192 1.761 C 313.628 1.412,311.429 2.559,311.549 3.139 C 311.600 3.387,311.384 3.601,311.069 3.614 C 310.261 3.647,307.494 5.165,306.869 5.918 C 306.581 6.265,305.562 6.947,304.604 7.436 C 302.298 8.611,292.192 18.842,292.512 19.677 C 292.661 20.063,292.586 20.174,292.297 19.995 C 291.999 19.811,291.937 19.936,292.106 20.377 C 292.256 20.766,292.204 20.937,291.980 20.799 C 291.773 20.671,291.603 20.749,291.603 20.973 C 291.603 21.216,290.922 21.341,289.924 21.282 C 289.001 21.228,288.342 21.025,288.460 20.832 C 288.579 20.638,288.382 20.593,288.020 20.732 C 287.660 20.871,287.454 20.840,287.563 20.664 C 287.854 20.193,286.031 19.326,285.474 19.670 C 285.143 19.875,285.093 19.810,285.309 19.460 C 285.538 19.090,285.446 19.022,284.966 19.206 C 284.525 19.375,284.401 19.313,284.585 19.015 C 284.767 18.720,284.648 18.653,284.227 18.815 C 283.839 18.964,283.632 18.879,283.688 18.593 C 283.738 18.336,283.404 18.142,282.939 18.158 C 282.477 18.174,282.167 18.077,282.249 17.943 C 282.489 17.555,277.478 15.224,277.017 15.509 C 276.782 15.654,276.708 15.592,276.847 15.366 C 277.144 14.885,276.055 14.396,275.479 14.752 C 275.221 14.912,275.187 14.819,275.385 14.498 C 275.614 14.128,275.522 14.060,275.043 14.244 C 274.653 14.393,274.482 14.342,274.621 14.117 C 274.908 13.653,272.995 12.874,272.428 13.224 C 272.193 13.369,272.130 13.298,272.280 13.055 C 272.607 12.526,271.126 11.699,270.370 11.989 C 270.061 12.108,269.900 12.055,270.013 11.872 C 270.211 11.552,266.896 9.924,266.044 9.924 C 265.815 9.924,264.644 9.432,263.443 8.832 C 260.506 7.364,256.230 5.986,255.675 6.329 C 255.417 6.488,255.327 6.443,255.463 6.223 C 255.754 5.751,252.826 4.821,252.223 5.194 C 251.976 5.347,251.895 5.292,252.035 5.066 C 252.175 4.839,251.671 4.500,250.853 4.271 C 250.069 4.051,248.714 3.608,247.842 3.286 C 246.970 2.964,245.399 2.651,244.350 2.591 C 243.301 2.530,242.519 2.357,242.611 2.206 C 242.848 1.818,240.980 1.401,240.070 1.639 C 239.603 1.761,239.406 1.685,239.558 1.440 C 239.715 1.185,239.381 1.104,238.624 1.216 C 237.975 1.311,237.521 1.265,237.615 1.113 C 238.313 -0.016,148.036 -0.662,144.940 0.451 M353.435 11.025 C 370.959 15.547,382.637 26.596,388.578 44.275 C 391.689 53.531,390.887 68.339,386.921 74.879 C 377.969 89.642,369.201 97.855,358.399 101.597 C 318.533 115.406,282.338 74.591,301.134 37.023 C 307.053 25.192,316.811 17.013,330.062 12.775 C 331.587 12.287,333.434 11.518,334.166 11.065 C 337.244 9.163,346.147 9.144,353.435 11.025 M198.153 10.860 C 199.325 11.166,203.011 11.525,206.344 11.660 C 209.677 11.794,213.006 12.069,213.740 12.270 C 214.475 12.472,216.656 12.782,218.587 12.960 C 224.818 13.535,236.601 16.312,246.183 19.463 C 251.458 21.198,259.926 24.393,261.819 25.363 C 262.966 25.951,264.983 26.838,266.303 27.334 C 269.311 28.467,275.848 31.807,280.344 34.510 C 287.464 38.790,288.181 40.141,286.641 46.374 C 283.288 59.946,288.432 82.588,297.048 92.186 C 298.174 93.440,299.652 95.283,300.331 96.282 C 301.011 97.281,302.546 98.823,303.742 99.710 C 304.938 100.596,306.909 102.205,308.122 103.284 C 311.193 106.016,319.423 110.137,326.275 112.373 L 331.748 114.160 341.924 114.268 C 355.046 114.407,354.421 114.113,357.363 121.548 C 361.576 132.199,366.081 146.555,367.129 152.672 C 367.596 155.396,368.589 160.253,369.292 163.246 C 369.597 164.549,369.847 167.218,369.847 169.178 C 369.847 171.434,370.091 173.575,370.510 175.015 C 371.387 178.021,371.523 203.497,370.675 205.725 C 370.395 206.460,370.028 209.380,369.860 212.214 C 369.691 215.048,369.279 218.655,368.945 220.229 C 368.610 221.803,368.062 224.466,367.727 226.145 C 366.210 233.747,365.041 238.160,362.522 245.802 C 359.189 255.908,356.231 263.381,354.323 266.515 C 353.527 267.823,351.959 270.782,350.838 273.092 C 346.969 281.064,335.088 299.264,330.814 303.764 C 330.089 304.528,328.750 306.183,327.839 307.443 C 325.751 310.331,309.446 326.613,306.988 328.265 C 305.979 328.944,304.552 330.067,303.817 330.762 C 300.423 333.970,288.259 342.436,282.988 345.258 C 281.113 346.262,278.893 347.545,278.053 348.111 C 276.041 349.466,266.228 354.370,263.236 355.516 C 261.939 356.012,259.074 357.149,256.870 358.041 C 249.985 360.829,238.198 364.522,231.489 365.994 C 229.599 366.409,226.422 367.104,224.427 367.540 C 222.433 367.976,220.200 368.333,219.466 368.333 C 218.731 368.333,217.099 368.592,215.840 368.909 C 214.580 369.225,210.544 369.637,206.870 369.822 C 203.197 370.008,199.591 370.348,198.857 370.576 C 196.870 371.197,186.155 371.093,183.397 370.427 C 182.060 370.105,179.121 369.866,176.336 369.854 C 173.486 369.842,170.489 369.594,168.893 369.239 C 167.424 368.912,164.933 368.498,163.359 368.319 C 161.784 368.141,159.473 367.725,158.221 367.394 C 156.970 367.064,155.596 366.793,155.168 366.792 C 151.960 366.782,132.850 361.004,122.710 356.976 C 110.971 352.314,89.041 339.489,81.107 332.645 C 79.847 331.559,78.216 330.269,77.481 329.779 C 74.452 327.758,54.182 307.111,50.868 302.672 C 49.067 300.258,46.922 297.424,46.102 296.374 C 43.638 293.219,37.584 283.950,36.254 281.298 C 35.571 279.933,34.432 277.909,33.723 276.800 C 32.073 274.216,28.117 266.301,27.482 264.313 C 27.213 263.473,26.402 261.602,25.678 260.154 C 23.591 255.981,18.594 240.579,16.688 232.443 C 13.989 220.927,13.699 219.391,13.355 214.791 C 13.179 212.429,12.838 209.895,12.597 209.160 C 11.848 206.874,11.978 174.847,12.748 171.891 C 13.084 170.602,13.371 168.541,13.387 167.311 C 13.484 159.497,20.075 134.383,24.892 123.473 C 25.726 121.584,26.968 118.664,27.650 116.985 C 29.183 113.216,32.194 107.196,33.569 105.153 C 34.134 104.313,35.421 102.087,36.428 100.206 C 38.659 96.038,42.534 90.196,46.912 84.401 C 48.716 82.014,50.861 79.094,51.681 77.912 C 53.752 74.925,73.608 54.991,77.099 52.395 C 78.674 51.224,80.649 49.624,81.489 48.840 C 83.057 47.375,96.847 38.044,99.237 36.831 C 99.971 36.457,101.282 35.667,102.149 35.074 C 113.976 26.985,152.713 13.359,163.883 13.359 C 164.618 13.359,166.616 13.025,168.324 12.617 C 170.178 12.174,173.688 11.771,177.032 11.617 C 180.113 11.475,183.578 11.136,184.733 10.864 C 187.665 10.172,195.504 10.170,198.153 10.860 M183.015 70.256 C 180.916 70.643,178.092 70.967,176.741 70.976 C 173.711 70.996,167.386 72.163,161.069 73.867 C 158.445 74.575,154.924 75.409,153.244 75.720 C 144.106 77.413,124.161 87.935,115.614 95.571 C 114.650 96.433,112.619 98.082,111.101 99.237 C 107.676 101.841,100.905 108.745,97.882 112.714 C 91.752 120.763,89.831 123.505,86.868 128.435 C 80.024 139.825,71.763 162.166,71.757 169.301 C 71.756 170.155,71.456 171.787,71.091 172.927 C 70.085 176.061,70.083 205.590,71.088 208.837 C 71.455 210.024,71.758 211.742,71.760 212.654 C 71.769 216.057,75.523 228.841,79.420 238.740 C 81.463 243.928,82.616 246.221,86.680 253.172 C 89.139 257.378,93.589 263.935,95.017 265.458 C 95.804 266.298,97.406 268.273,98.577 269.847 C 110.960 286.501,138.300 303.396,161.641 308.819 C 164.370 309.453,167.625 310.237,168.874 310.561 C 170.122 310.885,172.956 311.286,175.171 311.452 C 177.386 311.618,179.798 311.943,180.532 312.175 C 182.340 312.745,201.096 312.745,202.551 312.174 C 203.142 311.942,205.507 311.609,207.806 311.432 C 210.105 311.256,213.024 310.853,214.294 310.536 C 215.564 310.219,218.235 309.596,220.229 309.150 C 235.097 305.832,255.989 295.800,266.371 286.993 C 267.713 285.855,269.603 284.346,270.570 283.639 C 275.725 279.875,285.536 268.843,288.098 263.931 C 288.536 263.092,290.012 260.859,291.379 258.969 C 299.818 247.298,310.687 219.984,310.687 210.446 C 310.687 209.717,310.988 207.884,311.355 206.373 C 311.923 204.036,312.023 201.716,312.023 190.840 C 312.023 179.963,311.923 177.643,311.355 175.306 C 310.988 173.795,310.687 171.847,310.687 170.976 C 310.687 170.105,309.819 165.938,308.759 161.716 C 298.075 119.183,266.639 86.788,224.074 74.448 C 220.595 73.439,216.803 72.493,215.649 72.344 C 214.494 72.195,212.580 71.830,211.395 71.533 C 210.210 71.236,208.122 70.992,206.754 70.992 C 205.386 70.992,201.976 70.650,199.176 70.232 C 193.015 69.311,188.107 69.319,183.015 70.256 M202.672 80.909 C 239.120 84.172,273.655 108.118,290.601 141.880 C 292.375 145.414,292.457 147.346,290.897 148.797 C 289.607 149.996,285.979 151.713,266.595 160.296 C 263.862 161.506,260.596 163.016,259.338 163.651 C 258.080 164.286,255.335 165.533,253.239 166.423 C 240.565 171.800,237.468 173.798,237.128 176.816 C 236.467 182.679,242.017 183.744,251.001 179.478 C 253.756 178.169,256.108 177.099,256.228 177.099 C 256.348 177.099,259.934 175.489,264.197 173.521 C 295.133 159.239,295.646 159.039,297.133 160.682 C 297.818 161.439,300.355 170.707,300.374 172.519 C 300.379 173.044,300.726 175.534,301.145 178.053 C 304.189 196.367,300.075 219.616,290.274 239.504 C 285.273 249.651,284.723 250.518,276.097 261.877 C 273.357 265.484,265.999 272.965,263.168 275.019 C 262.328 275.629,260.611 277.011,259.351 278.092 C 246.531 289.089,223.482 298.590,204.771 300.589 C 202.042 300.881,199.122 301.293,198.282 301.505 C 196.027 302.074,186.847 301.988,184.160 301.372 C 182.901 301.084,180.239 300.737,178.244 300.601 C 162.027 299.499,138.102 289.879,124.618 279.040 C 123.149 277.858,120.966 276.151,119.768 275.244 C 116.731 272.947,112.214 268.106,112.214 267.149 C 112.214 265.268,114.780 263.513,120.896 261.210 C 122.208 260.716,125.128 259.387,127.385 258.256 C 129.642 257.125,133.400 255.418,135.737 254.462 C 138.073 253.506,141.898 251.765,144.236 250.592 C 146.575 249.419,149.816 247.933,151.439 247.290 C 156.643 245.227,158.675 242.640,157.686 239.336 C 156.607 235.734,153.253 234.604,149.237 236.489 C 148.082 237.030,145.893 237.971,144.371 238.580 C 142.850 239.188,140.102 240.440,138.264 241.361 C 136.427 242.283,132.433 244.109,129.389 245.420 C 126.345 246.730,122.561 248.452,120.979 249.246 C 116.327 251.581,104.683 256.489,103.795 256.489 C 99.660 256.489,87.352 231.959,84.134 217.304 C 81.080 203.394,80.727 204.140,92.780 199.022 C 95.597 197.827,99.532 196.034,101.527 195.038 C 103.521 194.043,107.446 192.255,110.248 191.065 C 113.051 189.875,116.674 188.232,118.300 187.415 C 119.926 186.597,122.872 185.248,124.846 184.416 C 126.820 183.584,130.668 181.835,133.397 180.530 C 136.126 179.224,139.431 177.748,140.742 177.250 C 142.052 176.752,145.187 175.310,147.708 174.047 C 150.230 172.783,154.009 171.065,156.107 170.229 C 158.205 169.393,161.940 167.703,164.407 166.474 C 166.875 165.244,170.130 163.771,171.643 163.199 C 177.103 161.136,178.985 157.715,176.617 154.159 C 174.086 150.359,171.051 150.960,156.298 158.182 C 153.569 159.518,149.821 161.234,147.969 161.994 C 146.117 162.755,143.258 164.054,141.614 164.880 C 139.971 165.706,136.333 167.356,133.531 168.546 C 130.728 169.735,126.803 171.525,124.809 172.522 C 122.815 173.519,119.723 174.942,117.939 175.685 C 116.155 176.427,112.634 178.013,110.115 179.207 C 107.595 180.402,103.473 182.287,100.954 183.397 C 98.435 184.507,93.969 186.536,91.031 187.905 C 81.669 192.266,81.297 192.112,81.300 183.874 C 81.301 180.883,81.493 177.748,81.726 176.908 C 81.959 176.069,82.368 173.922,82.634 172.137 C 85.030 156.056,93.708 135.870,103.227 124.237 C 104.086 123.187,105.550 121.298,106.479 120.038 C 121.139 100.182,153.447 83.238,181.107 80.899 C 184.046 80.651,186.536 80.362,186.641 80.257 C 186.909 79.989,196.964 80.398,202.672 80.909 M384.345 158.874 C 384.342 159.136,384.187 159.592,384.000 159.887 C 383.758 160.270,383.678 160.134,383.720 159.410 C 383.777 158.423,384.357 157.926,384.345 158.874 " stroke="none" fill="#2c3463" fill-rule="evenodd"></path><path id="path2" d="M337.310 9.909 C 336.314 10.092,334.899 10.612,334.166 11.065 C 333.434 11.518,331.587 12.287,330.062 12.775 C 309.866 19.234,295.802 37.682,295.802 57.712 C 295.802 86.857,324.406 109.897,352.352 103.261 C 367.292 99.714,376.391 92.243,386.921 74.879 C 387.390 74.106,388.019 72.700,388.319 71.756 C 397.772 41.941,375.514 10.734,344.084 9.735 C 341.355 9.648,338.307 9.726,337.310 9.909 M184.733 10.864 C 183.578 11.136,180.113 11.475,177.032 11.617 C 173.688 11.771,170.178 12.174,168.324 12.617 C 166.616 13.025,164.618 13.359,163.883 13.359 C 152.713 13.359,113.976 26.985,102.149 35.074 C 101.282 35.667,99.971 36.457,99.237 36.831 C 96.847 38.044,83.057 47.375,81.489 48.840 C 80.649 49.624,78.674 51.224,77.099 52.395 C 73.608 54.991,53.752 74.925,51.681 77.912 C 50.861 79.094,48.716 82.014,46.912 84.401 C 42.534 90.196,38.659 96.038,36.428 100.206 C 35.421 102.087,34.134 104.313,33.569 105.153 C 32.194 107.196,29.183 113.216,27.650 116.985 C 26.968 118.664,25.726 121.584,24.892 123.473 C 22.781 128.255,18.686 140.956,16.832 148.473 C 14.544 157.748,13.430 163.843,13.387 167.311 C 13.371 168.541,13.084 170.602,12.748 171.891 C 11.978 174.847,11.848 206.874,12.597 209.160 C 12.838 209.895,13.179 212.429,13.355 214.791 C 13.699 219.391,13.989 220.927,16.688 232.443 C 18.594 240.579,23.591 255.981,25.678 260.154 C 26.402 261.602,27.213 263.473,27.482 264.313 C 28.117 266.301,32.073 274.216,33.723 276.800 C 34.432 277.909,35.571 279.933,36.254 281.298 C 37.584 283.950,43.638 293.219,46.102 296.374 C 46.922 297.424,49.067 300.258,50.868 302.672 C 54.182 307.111,74.452 327.758,77.481 329.779 C 78.216 330.269,79.847 331.559,81.107 332.645 C 89.041 339.489,110.971 352.314,122.710 356.976 C 132.850 361.004,151.960 366.782,155.168 366.792 C 155.596 366.793,156.970 367.064,158.221 367.394 C 159.473 367.725,161.784 368.141,163.359 368.319 C 164.933 368.498,167.424 368.912,168.893 369.239 C 170.489 369.594,173.486 369.842,176.336 369.854 C 179.121 369.866,182.060 370.105,183.397 370.427 C 186.155 371.093,196.870 371.197,198.857 370.576 C 199.591 370.348,203.197 370.008,206.870 369.822 C 210.544 369.637,214.580 369.225,215.840 368.909 C 217.099 368.592,218.731 368.333,219.466 368.333 C 220.200 368.333,222.433 367.976,224.427 367.540 C 226.422 367.104,229.599 366.409,231.489 365.994 C 238.198 364.522,249.985 360.829,256.870 358.041 C 259.074 357.149,261.939 356.012,263.236 355.516 C 266.228 354.370,276.041 349.466,278.053 348.111 C 278.893 347.545,281.113 346.262,282.988 345.258 C 288.259 342.436,300.423 333.970,303.817 330.762 C 304.552 330.067,305.979 328.944,306.988 328.265 C 309.446 326.613,325.751 310.331,327.839 307.443 C 328.750 306.183,330.089 304.528,330.814 303.764 C 335.088 299.264,346.969 281.064,350.838 273.092 C 351.959 270.782,353.527 267.823,354.323 266.515 C 356.231 263.381,359.189 255.908,362.522 245.802 C 365.041 238.160,366.210 233.747,367.727 226.145 C 368.062 224.466,368.610 221.803,368.945 220.229 C 369.279 218.655,369.691 215.048,369.860 212.214 C 370.028 209.380,370.395 206.460,370.675 205.725 C 371.523 203.497,371.387 178.021,370.510 175.015 C 370.091 173.575,369.847 171.434,369.847 169.178 C 369.847 167.218,369.597 164.549,369.292 163.246 C 368.589 160.253,367.596 155.396,367.129 152.672 C 366.081 146.555,361.576 132.199,357.363 121.548 C 354.421 114.113,355.046 114.407,341.924 114.268 L 331.748 114.160 326.275 112.373 C 319.423 110.137,311.193 106.016,308.122 103.284 C 306.909 102.205,304.938 100.596,303.742 99.710 C 302.546 98.823,301.011 97.281,300.331 96.282 C 299.652 95.283,298.174 93.440,297.048 92.186 C 288.432 82.588,283.288 59.946,286.641 46.374 C 288.181 40.141,287.464 38.790,280.344 34.510 C 275.848 31.807,269.311 28.467,266.303 27.334 C 264.983 26.838,262.966 25.951,261.819 25.363 C 256.834 22.809,239.838 17.185,231.489 15.327 C 223.684 13.590,221.937 13.270,218.587 12.960 C 216.656 12.782,214.475 12.472,213.740 12.270 C 213.006 12.069,209.677 11.794,206.344 11.660 C 203.011 11.525,199.325 11.166,198.153 10.860 C 195.504 10.170,187.665 10.172,184.733 10.864 M352.158 11.682 C 369.930 15.965,381.946 27.100,387.631 44.555 L 389.313 49.718 389.313 56.926 C 389.313 62.227,389.154 64.763,388.711 66.513 C 386.622 74.775,386.176 75.492,381.630 77.885 L 378.435 79.566 373.474 79.709 C 369.856 79.814,367.737 79.684,365.649 79.230 C 364.075 78.888,361.670 78.371,360.305 78.082 C 351.972 76.316,339.708 67.648,334.306 59.705 C 330.566 54.205,327.902 46.276,327.457 39.313 C 326.485 24.121,329.395 14.559,335.978 11.314 C 338.138 10.249,347.052 10.451,352.158 11.682 M198.092 13.168 C 199.398 13.519,201.992 13.736,204.962 13.743 C 207.901 13.749,210.758 13.986,212.405 14.359 C 213.874 14.692,216.622 15.097,218.511 15.258 C 220.401 15.420,223.235 15.841,224.809 16.195 C 226.384 16.549,229.218 17.178,231.107 17.593 C 234.916 18.430,242.459 20.566,245.992 21.809 C 253.847 24.573,258.491 26.353,260.496 27.369 C 261.756 28.008,264.021 28.974,265.530 29.516 C 268.971 30.751,273.094 32.812,276.431 34.964 C 277.848 35.878,279.737 36.991,280.629 37.438 C 284.596 39.424,285.655 41.580,284.487 45.292 C 283.331 48.965,283.447 66.077,284.661 70.802 C 286.928 79.630,291.256 89.171,294.744 93.031 C 295.738 94.131,297.416 96.221,298.474 97.674 C 299.623 99.254,301.199 100.850,302.393 101.643 C 303.491 102.372,305.475 103.937,306.801 105.121 C 309.817 107.812,317.974 111.986,325.000 114.433 L 329.962 116.161 340.667 116.382 C 352.639 116.629,352.770 116.658,353.911 119.329 C 359.091 131.452,363.352 145.123,365.672 157.061 C 366.121 159.370,366.718 162.376,367.000 163.740 C 367.281 165.105,367.612 168.198,367.735 170.613 C 367.858 173.028,368.210 175.948,368.517 177.102 C 369.321 180.124,369.329 201.804,368.527 204.907 C 368.221 206.092,367.799 209.380,367.589 212.214 C 367.379 215.048,367.013 218.311,366.776 219.466 C 363.669 234.578,363.383 235.714,360.403 244.847 C 357.818 252.766,356.086 257.399,353.738 262.675 C 352.012 266.551,348.442 268.168,340.458 268.691 C 337.834 268.862,335.086 269.236,334.351 269.520 C 332.388 270.281,308.020 270.268,306.107 269.505 C 305.343 269.201,302.485 268.861,299.427 268.711 C 289.334 268.218,288.582 267.116,293.443 259.941 C 303.258 245.450,311.168 225.195,312.973 209.924 C 313.184 208.139,313.529 206.079,313.740 205.346 C 314.263 203.523,314.246 178.078,313.721 176.333 C 313.500 175.600,313.159 173.368,312.963 171.374 C 310.021 141.400,287.902 107.222,258.926 87.878 C 247.352 80.151,223.424 70.229,216.364 70.229 C 215.788 70.229,213.888 69.887,212.142 69.468 C 210.397 69.050,207.681 68.706,206.107 68.703 C 204.532 68.701,201.613 68.421,199.618 68.082 C 194.787 67.259,186.974 67.253,182.878 68.068 C 181.123 68.417,178.460 68.707,176.962 68.712 C 175.463 68.717,172.777 69.057,170.992 69.466 C 169.208 69.875,167.233 70.215,166.603 70.221 C 165.973 70.228,163.397 70.831,160.878 71.561 C 155.910 73.002,153.425 73.236,152.676 72.333 C 152.063 71.594,153.275 64.371,155.010 58.428 C 155.403 57.081,155.725 55.743,155.725 55.456 C 155.725 54.611,160.270 40.889,161.515 37.977 C 162.143 36.508,162.919 34.532,163.240 33.588 C 164.217 30.716,170.210 19.194,171.973 16.799 C 173.932 14.138,174.921 13.749,179.771 13.735 C 181.555 13.730,183.874 13.487,184.924 13.195 C 187.554 12.463,195.405 12.447,198.092 13.168 M199.176 70.232 C 201.976 70.650,205.386 70.992,206.754 70.992 C 208.122 70.992,210.210 71.236,211.395 71.533 C 212.580 71.830,214.494 72.195,215.649 72.344 C 217.818 72.623,228.820 75.699,232.471 77.046 C 270.758 91.178,298.881 122.391,308.759 161.716 C 309.819 165.938,310.687 170.105,310.687 170.976 C 310.687 171.847,310.988 173.795,311.355 175.306 C 311.923 177.643,312.023 179.963,312.023 190.840 C 312.023 201.716,311.923 204.036,311.355 206.373 C 310.988 207.884,310.687 209.717,310.687 210.446 C 310.687 219.984,299.818 247.298,291.379 258.969 C 290.012 260.859,288.536 263.092,288.098 263.931 C 285.536 268.843,275.725 279.875,270.570 283.639 C 269.603 284.346,267.713 285.855,266.371 286.993 C 255.989 295.800,235.097 305.832,220.229 309.150 C 218.235 309.596,215.564 310.219,214.294 310.536 C 213.024 310.853,210.105 311.256,207.806 311.432 C 205.507 311.609,203.142 311.942,202.551 312.174 C 201.096 312.745,182.340 312.745,180.532 312.175 C 179.798 311.943,177.386 311.618,175.171 311.452 C 172.956 311.286,170.122 310.885,168.874 310.561 C 167.625 310.237,164.370 309.453,161.641 308.819 C 138.300 303.396,110.960 286.501,98.577 269.847 C 97.406 268.273,95.804 266.298,95.017 265.458 C 93.589 263.935,89.139 257.378,86.680 253.172 C 82.616 246.221,81.463 243.928,79.420 238.740 C 75.523 228.841,71.769 216.057,71.760 212.654 C 71.758 211.742,71.455 210.024,71.088 208.837 C 70.083 205.590,70.085 176.061,71.091 172.927 C 71.456 171.787,71.756 170.155,71.757 169.301 C 71.763 162.166,80.024 139.825,86.868 128.435 C 89.831 123.505,91.752 120.763,97.882 112.714 C 100.905 108.745,107.676 101.841,111.101 99.237 C 112.619 98.082,114.650 96.433,115.614 95.571 C 124.161 87.935,144.106 77.413,153.244 75.720 C 154.924 75.409,158.445 74.575,161.069 73.867 C 167.386 72.163,173.711 70.996,176.741 70.976 C 178.092 70.967,180.916 70.643,183.015 70.256 C 188.107 69.319,193.015 69.311,199.176 70.232 M388.335 99.714 L 387.214 100.954 388.454 99.833 C 389.136 99.217,389.695 98.658,389.695 98.593 C 389.695 98.298,389.380 98.557,388.335 99.714 M384.720 103.340 L 382.634 105.534 384.828 103.448 C 386.035 102.301,387.023 101.313,387.023 101.253 C 387.023 100.970,386.658 101.301,384.720 103.340 M385.675 190.840 C 385.675 203.120,385.723 208.144,385.782 202.004 C 385.841 195.864,385.841 185.816,385.782 179.676 C 385.723 173.535,385.675 178.559,385.675 190.840 " stroke="none" fill="#5b6ab1" fill-rule="evenodd"></path><path id="path3" d="M186.641 80.257 C 186.536 80.362,184.046 80.651,181.107 80.899 C 153.447 83.238,121.139 100.182,106.479 120.038 C 105.550 121.298,104.086 123.187,103.227 124.237 C 93.708 135.870,85.030 156.056,82.634 172.137 C 82.368 173.922,81.959 176.069,81.726 176.908 C 81.493 177.748,81.301 180.883,81.300 183.874 C 81.297 192.112,81.669 192.266,91.031 187.905 C 93.969 186.536,98.435 184.507,100.954 183.397 C 103.473 182.287,107.595 180.402,110.115 179.207 C 112.634 178.013,116.155 176.427,117.939 175.685 C 119.723 174.942,122.815 173.519,124.809 172.522 C 126.803 171.525,130.728 169.735,133.531 168.546 C 136.333 167.356,139.971 165.706,141.614 164.880 C 143.258 164.054,146.117 162.755,147.969 161.994 C 149.821 161.234,153.569 159.518,156.298 158.182 C 171.051 150.960,174.086 150.359,176.617 154.159 C 178.985 157.715,177.103 161.136,171.643 163.199 C 170.130 163.771,166.875 165.244,164.407 166.474 C 161.940 167.703,158.205 169.393,156.107 170.229 C 154.009 171.065,150.230 172.783,147.708 174.047 C 145.187 175.310,142.052 176.752,140.742 177.250 C 139.431 177.748,136.126 179.224,133.397 180.530 C 130.668 181.835,126.820 183.584,124.846 184.416 C 122.872 185.248,119.926 186.597,118.300 187.415 C 116.674 188.232,113.051 189.875,110.248 191.065 C 107.446 192.255,103.521 194.043,101.527 195.038 C 99.532 196.034,95.597 197.827,92.780 199.022 C 81.643 203.751,81.272 204.250,83.005 212.156 C 83.311 213.552,83.819 215.869,84.134 217.304 C 87.352 231.959,99.660 256.489,103.795 256.489 C 104.683 256.489,116.327 251.581,120.979 249.246 C 122.561 248.452,126.345 246.730,129.389 245.420 C 132.433 244.109,136.427 242.283,138.264 241.361 C 140.102 240.440,142.850 239.188,144.371 238.580 C 145.893 237.971,148.082 237.030,149.237 236.489 C 153.253 234.604,156.607 235.734,157.686 239.336 C 158.675 242.640,156.643 245.227,151.439 247.290 C 149.816 247.933,146.575 249.419,144.236 250.592 C 141.898 251.765,138.073 253.506,135.737 254.462 C 133.400 255.418,129.642 257.125,127.385 258.256 C 125.128 259.387,122.208 260.716,120.896 261.210 C 114.780 263.513,112.214 265.268,112.214 267.149 C 112.214 268.106,116.731 272.947,119.768 275.244 C 120.966 276.151,123.149 277.858,124.618 279.040 C 138.102 289.879,162.027 299.499,178.244 300.601 C 180.239 300.737,182.901 301.084,184.160 301.372 C 186.847 301.988,196.027 302.074,198.282 301.505 C 199.122 301.293,202.042 300.881,204.771 300.589 C 223.482 298.590,246.531 289.089,259.351 278.092 C 260.611 277.011,262.328 275.629,263.168 275.019 C 265.999 272.965,273.357 265.484,276.097 261.877 C 284.723 250.518,285.273 249.651,290.274 239.504 C 300.075 219.616,304.189 196.367,301.145 178.053 C 300.726 175.534,300.379 173.044,300.374 172.519 C 300.355 170.707,297.818 161.439,297.133 160.682 C 295.646 159.039,295.133 159.239,264.197 173.521 C 259.934 175.489,256.348 177.099,256.228 177.099 C 256.108 177.099,253.756 178.169,251.001 179.478 C 242.017 183.744,236.467 182.679,237.128 176.816 C 237.468 173.798,240.565 171.800,253.239 166.423 C 255.335 165.533,258.080 164.286,259.338 163.651 C 260.596 163.016,263.862 161.506,266.595 160.296 C 285.979 151.713,289.607 149.996,290.897 148.797 C 292.983 146.857,292.255 144.248,287.293 135.878 C 270.524 107.592,244.920 89.218,212.881 82.480 C 206.016 81.036,187.437 79.462,186.641 80.257 " stroke="none" fill="#f26a24" fill-rule="evenodd"></path></g></svg>